<?xml version="1.0" encoding="UTF-8"?>
<svg id="Layer_1" xmlns="http://www.w3.org/2000/svg" version="1.1" viewBox="0 0 1920 1080">
  <!-- Generator: Adobe Illustrator 29.7.1, SVG Export Plug-In . SVG Version: 2.1.1 Build 8)  -->
  <path d="M629.4,379.2c-74-117.6-255.8-96.8-296.7,36.8-35.9,117.3,83.9,276,155.9,361.8,5.3-1,76.2-92.3,90.4-115.6,50.9-83.4,109.8-189,50.5-283.1ZM537.4,498c-2.8,30.1-5.1,71.9.6,111.7-15.1,5.7-32.1,6.8-46.3,6.8-55.7,0-68.5-37.5-57.7-79l10.8-41.2c-22.7-.3-32.7,1.7-41.5,6-2.8-9.4-4.5-20.5-4.5-27.9,0-48.3,31.6-64.2,72.8-64.2s52,3.7,72.5,3.7,32.7-3.4,39.5-7.7c8.5,11.7,11.7,28.7,11.7,40.4,0,32.1-15.6,52.3-57.7,51.5Z" style="fill: #8fcb9b;"/>
  <g>
    <path d="M765.8,487.4c-1.1,6.1-1.7,13-2.1,20l1.1,1.1c10.9-1.5,21.5-1.9,28.6-1.9l1.9,2.3c0,4.8-1.1,10.9-2.9,15.6-8.6,0-19.4.2-29.5.6-1.3,16.2-1.5,30.7-1.5,41.9s4.2,20.4,13,20.4,11.6-1.9,16.4-4.6l2.3,1.7c.6,4.2-.4,10.3-2.5,13.5-9,3.4-19.6,6.7-30.5,6.7-20.6,0-27.3-8.2-27.3-28.8s.8-37.7,2.1-50.1c-2.9,0-7.2.2-9.5.4l-1.9-1.3c-1.3-2.7-1.9-6.1-1.9-9,2.3-1.7,9.3-5,13.7-6.7l1.1-1.5c.4-5.7,1.1-13.9,1.7-18.3l1.3-1.5c5.7-1.9,14.7-4.2,21.9-5.5,2.1.6,4,2.7,4.6,5Z" style="fill: #215b56;"/>
    <path d="M894.4,507.8l.6,1.3c-2.1,10.5-3.4,19.4-3.6,31.6l-1.3,1.3c-5.7.4-12.4-.2-17-1.7-1.3-4-2.1-8.6-2.5-13-1.7-1.3-3.8-1.9-6.5-1.9-5.7,0-10.7,3.4-13.5,8.4-1.1,6.9-1.7,24.8-1.7,41.2s0,9.3.4,14.7c4-.8,9.9-1.5,14.1-1.5s6.1.2,8,.8l.8,1.9c0,4-1.3,8.8-3.2,11.4-17.2,0-40,.4-62.5,1.9-2.1-2.7-2.9-6.7-2.9-10.5l.8-1.5c3.8-.8,6.9-1.7,10.3-3.2,5.5-2.5,6.5-8,6.5-34.1s-.2-22.3-1.1-30.7l-.6-.8c-4.4.2-9.5,1.3-12.8,2.5-1.5-2.9-2.7-8.2-2.7-12l1.3-1.5c11.1-3.6,25.5-6.5,37.7-7.8,2.3.6,4.4,2.3,5.5,4.2,0,2.9.2,6.1.8,9l1.5.4,8.8-7.8c5.9-5,11.6-6.7,19.8-6.7s11.8,1.7,14.9,4Z" style="fill: #215b56;"/>
    <path d="M984,533.3c0,13.9-2.7,38.1-2.7,54.1l1.3,1.1c4.6-1.3,8.4-1.9,11.8-1.9s2.9.2,4.2.6l.8,1.5c0,4.8-.8,9-2.5,12-12.4,0-29.5,1.5-37.9,4-1.9,0-4.6-3.2-4.6-5.7.8-2.1,1.5-4.2,1.9-6.7l-.8-.6c-4.4,2.7-6.7,4.4-10.3,6.9-5.5,4-11.2,6.1-17.9,6.1-18.1,0-26.9-11.6-26.9-28.8s3.2-16,6.9-18.1c13.3-6.1,32.2-9.5,48-10.3.4-4.2.8-10.3.8-16,0-8.2-4-14.7-13-14.7s-10.5,2.9-12.4,6.5v10.9l-.8,1.9c-4,2.3-11.2,4-16,4-3.2-4.4-7.4-16.2-7.8-21.5,11.1-8,29.5-14.7,48.8-14.7s29.2,12.2,29.2,29.5ZM929.3,564.8c-.6,2.5-1.1,5-1.1,8.8,0,9,4.2,12.8,11.4,12.8s8-1.7,10.9-4.8c3.4-3.6,4.2-10.3,4.2-22.3-9.3.2-20,2.1-25.5,5.5Z" style="fill: #215b56;"/>
    <path d="M1090.5,508.9l1.1,1.9c-2.1,7.8-3.4,20.8-4.2,30.1l-1.1.8c-4.8,0-9.5-.6-14.3-2.1-.8-4-1.3-10.1-1.3-14.7-3.8-3.8-8.4-5.7-14.9-5.7-11.2,0-18.9,8.8-18.9,28.8s6.5,38.3,28,38.3,16.4-3.4,21-7.8l3.2.8c1.9,3.6,2.5,9,1.9,13-11.6,6.5-28.4,13-40.4,13-30.1,0-43.8-16.8-43.8-47.3s21.9-54.3,56.2-54.3,20.2,1.9,27.6,5Z" style="fill: #215b56;"/>
    <path d="M1148.5,456.5c-5,3.6-5.9,14.9-5.9,85.4s0,40.6.4,47.8c2.5-.8,5.5-1.3,8.2-1.3s3.4.2,4.6.8l.8,1.7c0,4-1.3,8.6-3.2,11.4-14.9,0-35.8.4-53.2,1.9-2.1-2.7-2.9-6.7-2.9-10.5l.8-1.5c3.8-.8,6.9-1.7,10.3-3.2,6.5-2.7,6.5-8,6.5-56v-68.6c-4.2.4-10.9,1.9-14.9,3.2-2.3-2.9-4.2-8-4.2-11.8l1.1-1.9c11.8-4,33.4-8.2,46.5-9.5,3.2,1.7,5,7.2,5,12ZM1216.3,507.6c0,4.2-1.3,9-2.7,11.8-8.6,0-20.6,8-31.1,16.2l-12.6,9.7c7.8,9.3,18.5,21.5,28.2,32,8.8,9.7,14.3,12.6,22.1,12.6l1.1,1.3c0,4.2-.8,8-3.2,11.1-3.4.6-8.4,1.1-13,1.1-18.1,0-24.4-2.9-33-12.8-8-9-20.2-25-25.9-33.9-.6-2.3-.6-6.5,0-9,5.9-5.5,19.4-16.6,31.1-24.8v-1.9c-1.7-.4-4.2-.6-7.2-.6-1.1-1.9-2.1-7.2-2.1-10.5l1.1-1.1c13-1.5,30.5-2.1,46.1-2.1l1.3,1.1Z" style="fill: #215b56;"/>
    <path d="M1270.3,487.4c-1.1,6.1-1.7,13-2.1,20l1.1,1.1c10.9-1.5,21.5-1.9,28.6-1.9l1.9,2.3c0,4.8-1.1,10.9-2.9,15.6-8.6,0-19.4.2-29.5.6-1.3,16.2-1.5,30.7-1.5,41.9s4.2,20.4,13,20.4,11.6-1.9,16.4-4.6l2.3,1.7c.6,4.2-.4,10.3-2.5,13.5-9,3.4-19.6,6.7-30.5,6.7-20.6,0-27.3-8.2-27.3-28.8s.8-37.7,2.1-50.1c-2.9,0-7.2.2-9.5.4l-1.9-1.3c-1.3-2.7-1.9-6.1-1.9-9,2.3-1.7,9.3-5,13.7-6.7l1.1-1.5c.4-5.7,1.1-13.9,1.7-18.3l1.3-1.5c5.7-1.9,14.7-4.2,21.9-5.5,2.1.6,4,2.7,4.6,5Z" style="fill: #8fcb9b;"/>
    <path d="M1353.6,456.5c-5,2.9-5.9,14.3-5.9,60l1.3,1.1,12.8-8.6c4.4-2.9,10.5-5,20.6-5,21.5,0,30.9,12,30.9,32.4s-1.3,38.7-2.5,53.4c2.9-.6,7.2-1.1,10.1-1.1s4.4.2,5.9.6l.8,1.7c0,4-1.3,8.6-3.4,11.4-13.5,0-32.2.4-49.9,1.9-1.7-2.7-2.5-6.7-2.5-10.5l.8-1.5c8.8-2.1,11.6-7.8,11.6-51.3s-4.6-18.3-14.3-18.3-16.4,4.4-20.6,10.3c-1.1,6.7-1.7,24.8-1.7,41s0,9.9.4,15.8c2.3-.6,5.7-1.1,8.2-1.1s3.6.2,4.6.6l.8,1.7c0,4-1.3,8.6-3.2,11.4-14.9,0-35.8.4-53.2,1.9-2.1-2.7-2.9-6.7-2.9-10.5l.8-1.5c3.8-.8,6.9-1.7,10.3-3.2,6.5-2.7,6.5-8,6.5-56v-68.6c-4.2.4-10.9,1.9-14.9,3.2-2.3-2.9-4.2-8-4.2-11.8l1.1-1.9c11.8-4,33.4-8.2,46.5-9.5,3.2,1.7,5,7.2,5,12Z" style="fill: #8fcb9b;"/>
    <path d="M1485.5,512.9c-2.7,8.4-4.6,32-4.6,55.3s0,16.6.4,21.5c2.9-.6,7.2-1.1,10.1-1.1s4.4.2,5.9.6l.8,1.7c0,4-1.3,8.6-3.4,11.4-15.4,0-36.2.4-56.2,1.9-2.1-2.7-2.9-6.7-2.9-10.5l.8-1.5c3.8-.8,6.9-1.7,10.3-3.2,5.5-2.5,6.5-8,6.5-34.1s-.2-22.3-1.1-30.7l-.6-.8c-4.4.2-9.5,1.3-12.8,2.5-1.5-2.9-2.7-8.2-2.7-12l1.3-1.5c12-3.6,27.6-6.5,40.6-7.8,3.2,0,7.6,3.8,7.6,8.2ZM1468.9,452.3c7.6,0,16,10.7,16,17.9s-10.9,18.9-21,18.9-16.2-10.1-16.2-19.1,11.1-17.7,21.2-17.7Z" style="fill: #8fcb9b;"/>
    <path d="M1582.7,508.9l1.1,1.9c-1.7,6.3-3.4,17.7-4,25l-1.1.6c-5.5.2-11.8-.6-15.6-2.5-.8-3.6-1.5-9.9-1.7-14.3-3.2-2.5-7.4-3.8-12.4-3.8s-11.6,4.2-11.6,12,5.5,12.6,21,17c19.1,5.3,26.9,12.8,26.9,26.7,0,20.2-18.1,33.2-46.3,33.2s-21.5-1.5-28.6-4.8l-1.7-2.1c0-10.3,1.5-20.8,3.8-28.4,5-.4,11.2.6,15.1,2.7l1.1,1.7c0,4.2.2,9.5.6,13.7,2.9,3.6,8,5.5,14.7,5.5s13.7-4.2,13.7-12.2-7.2-13-22.5-17.9c-17.5-5.5-24.6-13.7-24.6-27.8s16.6-31.1,43.3-31.1,20.8,1.9,28.6,4.8Z" style="fill: #8fcb9b;"/>
  </g>
</svg>